<?xml version="1.0" standalone="no"?><!DOCTYPE svg PUBLIC "-//W3C//DTD SVG 1.1//EN" "http://www.w3.org/Graphics/SVG/1.1/DTD/svg11.dtd"><svg t="1757041741382" class="icon" viewBox="0 0 1024 1024" version="1.1" xmlns="http://www.w3.org/2000/svg" p-id="4258" xmlns:xlink="http://www.w3.org/1999/xlink" width="200" height="200"><path d="M920.507276 246.269336l-85.792398-0.451539a557.831202 557.831202 0 0 0-321.676338 100.151336l-267.852898-243.831026-0.451538 85.792398a557.831202 557.831202 0 0 0 100.151336 321.947262l-243.831026 267.852897 85.792398 0.451539a557.831202 557.831202 0 0 0 321.856954-100.151336l267.852897 243.831026 0.451539-85.792398A557.831202 557.831202 0 0 0 677.308405 514.122233z m-354.458065 316.077255a74.594232 74.594232 0 1 1-4.966929-105.29888 74.594232 74.594232 0 0 1 4.966929 105.118265z" fill="#040000" p-id="4259"></path></svg>